# xmcd
#
# Track frame offsets: 
#        150
#        62775
#        84367
#        134292
#        208490
#        227460
#
# Disc length: 3324 seconds
#
# Revision: 0
# Processed by: cddbd v1.5PL3 Copyright (c) Steve Scherf et al.
# Submitted via: ExactAudioCopy v0.95a3
#
DISCID=4e0cfa06
DTITLE=MOSHIRI - kamuy to
DYEAR=1991
DGENRE=Swing
TTITLE0=kamuy to
TTITLE1=kamuy turano
TTITLE2=kikiri rimse
TTITLE3=emus rimse
TTITLE4=kamuy nupe eika
TTITLE5=icharpa
EXTD=
EXTT0=
EXTT1=
EXTT2=
EXTT3=
EXTT4=
EXTT5=
PLAYORDER=
